<?xml version="1.0" ?><svg viewBox="0 0 32 32" xmlns="http://www.w3.org/2000/svg"><title/><g data-name="ask fm owl media social" id="ask_fm_owl_media_social"><path fill="#10b981" d="M26.39,15.29V15.2s0-.07,0-.11l-1-8.3a2.24,2.24,0,0,0-4-1l-.38.53a1,1,0,1,0,1.62,1.17l.38-.54a.24.24,0,0,1,.25-.09.22.22,0,0,1,.18.19l.47,3.79A13.18,13.18,0,0,0,17.13,8,17.36,17.36,0,0,0,15.21,8L14,5a2.55,2.55,0,0,0-2.39-1.6A2.51,2.51,0,0,0,9.28,5L7,11.19a4.75,4.75,0,0,0-.2.54l0,.08v0a34.29,34.29,0,0,0-.88,3.92,7.66,7.66,0,0,0-.36,4.64A3.61,3.61,0,0,0,6.77,23.5,3.56,3.56,0,0,0,9.9,26.39,3.51,3.51,0,0,0,13.41,28a2.69,2.69,0,0,0,1.71.65,3,3,0,0,0,1.49-.44,3.36,3.36,0,0,0,3.83-1,3.07,3.07,0,0,0,2.17-1.13,2.7,2.7,0,0,0,1.82-1.42,2.88,2.88,0,0,0,1-2.09,20.32,20.32,0,0,0,1-6.53C26.43,15.77,26.41,15.53,26.39,15.29ZM23.49,22a1,1,0,0,0-.08.46.9.9,0,0,1-.44.82,1,1,0,0,0-.29.4c-.09.23-.25.45-.79.51a1,1,0,0,0-.79.55c-.11.23-.31.48-1.23.51a1,1,0,0,0-.79.45c-.38.58-.91,1-2.21.49a1,1,0,0,0-1,.13c-.69.52-1,.39-1.43-.08a1,1,0,0,0-1.11-.28c-.35.14-1.09.42-2.08-1.06a1,1,0,0,0-.85-.45c-.75,0-1.43-.19-1.79-1.75A1.06,1.06,0,0,0,8.17,22c-.19-.11-.69-.42-.6-1.7A1,1,0,0,0,7.52,20a5.72,5.72,0,0,1,.32-3.62,1,1,0,0,0,0-.17,34.8,34.8,0,0,1,.82-3.73l2.46-6.71a.53.53,0,0,1,1,0l1,2.44c-.54.09-1.08.2-1.61.34a1,1,0,1,0,.53,1.93A13.46,13.46,0,0,1,16.91,10c2.86.32,7,2.21,7.47,5.33v0a4.21,4.21,0,0,1,0,.62A17.36,17.36,0,0,1,23.49,22Z"/><path fill="#10b981" d="M19.59,12.28c-1.64.1-2.82,1.88-2.68,4s1.44,3.69,3,3.69h.15a2.65,2.65,0,0,0,2.11-1.42A4.64,4.64,0,0,0,22.75,16C22.62,13.79,21.24,12.17,19.59,12.28Zm.87,5.29c-.16.26-.35.42-.51.43-.37,0-1-.68-1.05-1.8s.44-1.9.81-1.93h0c.37,0,1,.71,1,1.81A2.79,2.79,0,0,1,20.46,17.57Z"/><path fill="#10b981" d="M15.39,16.51c.83-2,.3-4.07-1.22-4.7a2.65,2.65,0,0,0-2.51.35A4.61,4.61,0,0,0,10,14.26c-.83,2-.29,4.07,1.22,4.7a2.42,2.42,0,0,0,.91.18,3.86,3.86,0,0,0,3.28-2.63Zm-1.84-.77c-.44,1-1.24,1.51-1.58,1.37s-.57-1-.14-2.08a2.71,2.71,0,0,1,.93-1.21,1,1,0,0,1,.51-.19.32.32,0,0,1,.14,0C13.75,13.8,14,14.71,13.55,15.74Z"/><path fill="#10b981" d="M16.06,17.41a1,1,0,0,0-1.11.88l-.19,1.62A1,1,0,0,0,15.63,21h.12a1,1,0,0,0,1-.89l.19-1.62A1,1,0,0,0,16.06,17.41Z"/></g></svg>