<svg aria-labelledby="conf-city-title" fill="none" role="img" viewBox="0 0 48 48" width="420" height="420" xmlns="http://www.w3.org/2000/svg"><defs><linearGradient id="linearGradient2600"><stop offset="0" stop-color="#000"></stop><stop offset="0.5" stop-color="#424242"></stop><stop offset="1" stop-color="#7c7c7c"></stop></linearGradient><radialGradient id="radialGradient2593" cx="25.456" cy="36.686" r="15.758" gradientTransform="matrix(1 0 0 .65385 0 12.699)" gradientUnits="userSpaceOnUse"><stop offset="0" stop-color="#000"></stop><stop offset="1" stop-color="#000" stop-opacity="0"></stop></radialGradient><linearGradient id="linearGradient2606" x1="21.357" x2="31.929" y1="17.643" y2="17.643" gradientUnits="userSpaceOnUse" ></linearGradient><linearGradient id="linearGradient2608" x1="32.786" x2="19.375" y1="15.143" y2="15" gradientTransform="matrix(1 0 0 1.1739 0 -3.445)" gradientUnits="userSpaceOnUse" ></linearGradient><linearGradient id="linearGradient2616" x1="12.834" x2="33.027" y1="17.392" y2="17.392" gradientUnits="userSpaceOnUse"><stop offset="0" stop-color="#3c3c3c"></stop><stop offset="1" stop-color="#585858"></stop></linearGradient><radialGradient id="radialGradient2837" cx="24.786" cy="18.357" r="9.786" gradientTransform="matrix(1 0 0 .66423 0 6.164)" gradientUnits="userSpaceOnUse"><stop offset="0" stop-color="#000" stop-opacity="0"></stop><stop offset="0.776" stop-color="#4d4d4d" stop-opacity="0.882"></stop><stop offset="1" stop-color="#595959" stop-opacity="0"></stop></radialGradient><linearGradient id="linearGradient2390" x1="21.357" x2="32.643" y1="17.643" y2="17.643" gradientUnits="userSpaceOnUse"><stop offset="0" stop-color="#b6b6b6"></stop><stop offset="1" stop-color="#6a6a6a"></stop></linearGradient><linearGradient id="linearGradient2569" x1="31.264" x2="36.062" y1="31.408" y2="31.408" gradientUnits="userSpaceOnUse"><stop offset="0" stop-color="#e7e7e7"></stop><stop offset="1" stop-color="#a0a0a0"></stop></linearGradient><linearGradient id="linearGradient2577" x1="11.953" x2="37.096" y1="27.774" y2="27.774" gradientUnits="userSpaceOnUse"><stop offset="0" stop-color="#fff7b1"></stop><stop offset="0.5" stop-color="#ecd300"></stop><stop offset="1" stop-color="#b5a200"></stop></linearGradient><linearGradient id="linearGradient2631" x1="24.525" x2="24.525" y1="21.13" y2="26.433" gradientUnits="userSpaceOnUse"><stop offset="0" stop-color="#2a2500"></stop><stop offset="1" stop-color="#6e6200"></stop></linearGradient><linearGradient id="linearGradient2647" x1="12.84" x2="36.098" y1="19.42" y2="19.42" gradientUnits="userSpaceOnUse"><stop offset="0" stop-color="#393939"></stop><stop offset="0.159" stop-color="#747474"></stop><stop offset="1" stop-color="#000"></stop></linearGradient><linearGradient id="linearGradient2694" x1="13.923" x2="31.951" y1="7.817" y2="7.817" gradientUnits="userSpaceOnUse"><stop offset="0" stop-color="#fff"></stop><stop offset="1" stop-color="#fff" stop-opacity="0"></stop></linearGradient><linearGradient id="linearGradient2703" x1="24.547" x2="24.547" y1="18" y2="23.945" gradientUnits="userSpaceOnUse"><stop offset="0" stop-color="#222"></stop><stop offset="1" stop-color="#afafaf"></stop></linearGradient></defs><g><path fill="url(#linearGradient2616)" fill-rule="evenodd" stroke="#3d3d3d" stroke-linecap="round" stroke-linejoin="round" d="M13.334 32.04l.202-20.203s-.354-4.395 4.243-6.668c4.596-2.272 14.748-2.424 14.748-2.424v5.96s-6.465 1.01-7.475 3.435c-1.01 2.424-2.021 12.222-2.021 12.222l-9.697 7.678z"></path><path fill="url(#radialGradient2593)" d="M41.214 36.686a15.758 10.304 0 11-31.516 0 15.758 10.304 0 1131.516 0z" color="#000" display="block" transform="translate(-.808 .808)"></path><path fill="url(#linearGradient2577)" fill-rule="evenodd" stroke="url(#linearGradient2631)" d="M36.31 16.959l.286 19.655c.036 4.215-5.643 7.76-11.286 8.01s-10.797-2.83-11.714-5.785c-.455-1.465-1.143-2.412-1.143-4.786l.11-23.144 3.89 8.764 13.429-.142 6.428-2.572z"></path><path fill="#544b00" d="M29.395 26.029l2.021-.757-.101 17.324-1.92.808V26.029z" color="#000" display="block"></path><path fill="url(#linearGradient2569)" fill-rule="evenodd" d="M31.416 25.246l-.152 17.299c2.425-1.111 4.394-3.03 4.849-5.253l-.202-15.707c-.758 1.464-2.02 2.348-4.495 3.661z"></path><rect width="1.581" height="2.475" x="22.352" y="24.748" fill="#e7e7e7" color="#000" display="block" opacity="0.462" rx="0.452" ry="0.619" transform="skewY(-45.355) scale(.70272 1)"></rect><path fill="none" stroke="#fff" d="M35.507 17.696l.266 18.53c.033 3.927-5.258 7.231-10.516 7.464s-10.061-2.637-10.916-5.391c-.424-1.365-1.065-2.462-1.065-4.674l.102-21.567 3.625 8.168 12.513-.133 5.991-2.397z" opacity="0.494"></path><path fill="url(#linearGradient2647)" d="M25.096 12.258c-4.307 0-7.919 1.521-9.844 3.656l-2.292-1.986s-.384 4.576.222 6.165c1.212 4.138 5.645 6.49 11.914 6.49s11.002-3.08 11.002-5.097c0-1.893-.088-2.736-.088-2.736s-7.779-6.492-10.914-6.492z" color="#000" display="block"></path><path fill="url(#linearGradient2694)" fill-rule="evenodd" d="M31.951 3.192s-9.176.133-13.772 2.406-4.25 6.688-4.25 6.688l.094.156s-.346-4.415 4.25-6.688C22.831 3.5 31.785 3.351 31.951 3.348v-.156z" opacity="0.424"></path><path fill="#3f3f3f" stroke="url(#linearGradient2703)" d="M25.096 9.726c-4.307 0-7.919 1.522-9.844 3.657l-1.205-2.724-1.393.148s1.134 5.771 1.134 5.794c1.086 4.164 5.039 6.844 11.308 6.844s11.344-3.058 11.344-6.844c0-3.785-5.075-6.875-11.344-6.875z" color="#000" display="block"></path><path fill="url(#radialGradient2837)" d="M34.571 18.357a9.786 6.5 0 11-19.571 0 9.786 6.5 0 1119.571 0z" color="#000" display="block" transform="matrix(1 0 0 .94506 .429 -.902)"></path><path fill="url(#linearGradient2608)" d="M25.031 10.605c-2.839 0-5.156 1.696-5.156 3.778v1.651c0 2.083 2.317 3.778 5.156 3.778s5.125-1.695 5.125-3.778v-1.651c0-2.082-2.286-3.778-5.125-3.778z" color="#000" display="block"></path><path fill="url(#linearGradient2606)" d="M32.143 17.643a5.143 3.214 0 11-10.286 0 5.143 3.214 0 1110.286 0z" color="#000" display="block" transform="translate(-1.976 -3.876)"></path><path fill="#fff" fill-rule="evenodd" d="M12.715 10.833l1.478-.152 1.212 2.923s2.48-2.392 6.667-3.131c4.293-.758 7.93.404 7.93.404s-5.102-.758-8.486.05c-3.432.82-4.501 1.673-6.471 3.34l-1.282-2.923-1.048-.511z" opacity="0.316"></path><path fill="none" stroke="url(#linearGradient2390)" stroke-width="0.515" d="M32.143 17.643a5.143 3.214 0 11-10.286 0 5.143 3.214 0 1110.286 0z" color="#000" display="block" transform="translate(-1.188 -3.361) scale(.97084)"></path><path fill="#000" d="M31.145-25.213c-.209 0-.369.057-.481.171s-.168.277-.168.49c0 .212.056.375.168.488s.272.169.481.169c.206 0 .365-.056.475-.169s.165-.276.165-.488c0-.215-.055-.378-.165-.491s-.269-.17-.475-.17zm-.814-.368c-.263-.079-.461-.2-.594-.364a.947.947 0 01-.2-.615c0-.364.136-.642.409-.834.272-.191.672-.286 1.199-.286.523 0 .921.095 1.193.285s.408.469.408.835c0 .246-.067.45-.201.615-.134.164-.332.285-.595.364.293.082.515.213.665.396.149.182.224.412.224.691 0 .428-.142.752-.427.971s-.707.329-1.267.329c-.562 0-.986-.11-1.273-.329s-.43-.543-.43-.971c0-.279.075-.509.224-.691.15-.183.371-.314.665-.396zm.261-.866c0 .172.047.305.143.397.096.093.232.139.41.139.174 0 .308-.046.402-.139.095-.092.142-.225.142-.397 0-.171-.047-.303-.142-.395-.094-.092-.228-.137-.402-.137-.178 0-.314.046-.41.139-.096.092-.143.224-.143.393zm5.34 1.003c0-.541-.05-.922-.152-1.143-.101-.221-.272-.332-.511-.332s-.41.111-.513.332c-.102.221-.153.602-.153 1.143 0 .546.051.931.153 1.155a.528.528 0 00.513.336c.238 0 .407-.112.51-.336.102-.224.153-.609.153-1.155zm1.115.008c0 .717-.154 1.269-.463 1.658s-.747.584-1.315.584c-.57 0-1.009-.195-1.318-.584s-.463-.941-.463-1.658c0-.718.154-1.272.463-1.661s.748-.583 1.318-.583c.568 0 1.006.194 1.315.583s.463.943.463 1.661zm3.01-.008c0-.541-.051-.922-.152-1.143a.525.525 0 00-.512-.332.526.526 0 00-.512.332c-.103.221-.154.602-.154 1.143 0 .546.051.931.154 1.155a.526.526 0 00.512.336c.238 0 .408-.112.51-.336s.154-.609.154-1.155zm1.115.008c0 .717-.155 1.269-.464 1.658s-.747.584-1.315.584c-.569 0-1.009-.195-1.317-.584-.309-.389-.464-.941-.464-1.658 0-.718.155-1.272.464-1.661.308-.389.748-.583 1.317-.583.568 0 1.006.194 1.315.583s.464.943.464 1.661z" transform="rotate(90)"></path><rect width="2.129" height="2.475" x="29.041" y="6.508" fill="#e7e7e7" color="#000" display="block" rx="0.608" ry="0.619" transform="skewY(-4.764) scale(.99655 1)"></rect><rect width="2.136" height="2.475" x="25.378" y="7.608" fill="#e7e7e7" color="#000" display="block" rx="0.61" ry="0.619" transform="skewY(-6.721) scale(.99313 1)"></rect><rect width="1.895" height="2.475" x="21.713" y="8.957" fill="#e7e7e7" color="#000" display="block" opacity="0.785" rx="0.541" ry="0.619" transform="skewY(-9.493) scale(.9863 1)"></rect><rect width="1.874" height="2.475" x="19.841" y="14.66" fill="#e7e7e7" color="#000" display="block" opacity="0.553" rx="0.535" ry="0.619" transform="skewY(-23.593) scale(.91641 1)"></rect><path fill="#222" fill-rule="evenodd" d="M20.683 28.555v1.325c-2.21-.442-5.215-1.944-6.541-3.889v-1.502c1.326 2.121 3.712 3.447 6.541 4.066z" opacity="0.759"></path><path fill="#222" fill-rule="evenodd" d="M20.683 39.003v1.326c-4.154-1.768-5.48-3.094-6.541-5.303v-1.503c1.591 2.828 3.801 4.331 6.541 5.48z" opacity="0.373"></path><path fill="#222" fill-rule="evenodd" d="M20.683 36.168v1.326c-4.154-1.768-5.48-3.093-6.541-5.303v-1.503c1.591 2.829 3.801 4.331 6.541 5.48z" opacity="0.373"></path></g></svg>