<svg xmlns="http://www.w3.org/2000/svg" fill="#DD5037" version="1.1" viewBox="0 0 30 32.618"><path d="M17 27h9v2h-9z"></path><path d="M13 29H7c-1.654 0-3-1.346-3-3v-6h2v6c0 .551.448 1 1 1h6zm13-9h-2V2H7c-.552 0-1 .449-1 1v17H4V3c0-1.654 1.346-3 3-3h19z"></path><path d="M6 26H4c0-1.654 1.346-3 3-3h17v-3h2v5H7c-.552 0-1 .449-1 1z"></path><path stroke-width="1.614" d="M17.177 21.462h-4.354l-2.441-2.684V7.222l2.441-2.684h4.354l2.441 2.684v4.086h-3.079V8.623l-.637-.7h-1.804l-.637.7v8.754l.637.7h1.804l.637-.7v-2.685h3.079v4.086z"></path><path d="M18 32.618l-3-1.5-3 1.5V25h2v4.382l1-.5 1 .5V25h2z"></path></svg>