 <svg
      width="34.207"
      height="34.211"
      viewBox="0 0 34.207 34.211"
      fill="none"
      xmlns="http://www.w3.org/2000/svg"
      className="inline-flex md:hidden"
    >
      <g>
        <path
          d="M17.106,8.7c-.9.39-1.743.806-2.573,1.254a33.926,33.926,0,0,0-8.718,6.552A18.125,18.125,0,0,0,2.958,20.4,8.37,8.37,0,0,0,1.9,23.7c-.019.247,0,.5,0,.747-.058.014-.053-.037-.062-.058A16.752,16.752,0,0,1,.475,19.176,17.044,17.044,0,0,1,2.652,9a4.13,4.13,0,0,1,2.2-1.8,8.562,8.562,0,0,1,2.923-.539,19.985,19.985,0,0,1,6.2.928A29.311,29.311,0,0,1,17.011,8.66Z"
          fill="currentColor"
        />
        <path
          d="M33.116,10.553a10.561,10.561,0,0,1,.495,1.2,17.158,17.158,0,0,1-1.25,14.227,4.3,4.3,0,0,1-2.493,1.929,8.652,8.652,0,0,1-2.312.421,18.665,18.665,0,0,1-5.839-.711A28.7,28.7,0,0,1,18,26.349c-.025-.01-.048-.022-.092-.041.417-.2.814-.378,1.207-.569a35.761,35.761,0,0,0,8.732-5.9,21.217,21.217,0,0,0,3.806-4.542,10.036,10.036,0,0,0,1.365-3.342A6.747,6.747,0,0,0,33.116,10.553Z"
          fill="currentColor"
        />
        <path
          d="M19.28.506A11.24,11.24,0,0,1,20.6.681a16.97,16.97,0,0,1,8.528,4.287A16.8,16.8,0,0,1,32.3,8.934a4.158,4.158,0,0,1,.421,2.894,9.836,9.836,0,0,1-1.474,3.53,21.357,21.357,0,0,1-3.485,4.131,30.74,30.74,0,0,1-2.444,2.076c.028-.3.056-.567.079-.837a38.256,38.256,0,0,0,.1-4.788,35.4,35.4,0,0,0-.354-3.8,25.833,25.833,0,0,0-1.882-6.778,12.137,12.137,0,0,0-2.337-3.616A6.336,6.336,0,0,0,19.28.506Z"
          fill="currentColor"
        />
        <path
          d="M3.711,7.385A17.084,17.084,0,0,1,15.265.544C15.9.459,16.539.429,17.179.4a4.245,4.245,0,0,1,2.956,1.035,9.309,9.309,0,0,1,2.218,2.787,21.746,21.746,0,0,1,2.146,6.05c.174.813.311,1.632.42,2.456-.061.024-.085-.027-.116-.05a37.912,37.912,0,0,0-6.809-3.928,29.9,29.9,0,0,0-5.943-1.97,17.584,17.584,0,0,0-4.4-.425A8.256,8.256,0,0,0,4.316,7.1c-.2.1-.388.209-.581.314Z"
          fill="currentColor"
        />
        <path
          d="M15.712,34.5a10.767,10.767,0,0,1-1.307-.172,16.945,16.945,0,0,1-8.177-3.959,16.53,16.53,0,0,1-3.589-4.4,3.913,3.913,0,0,1-.416-2.418,9.361,9.361,0,0,1,1.533-3.912,21.311,21.311,0,0,1,3.475-4.116,30.7,30.7,0,0,1,2.443-2.074c-.015.16-.025.3-.039.431A37.11,37.11,0,0,0,9.5,19.223a34.111,34.111,0,0,0,.627,5.255,22.079,22.079,0,0,0,2.248,6.46,9.376,9.376,0,0,0,2.469,3.012A6.312,6.312,0,0,0,15.712,34.5Z"
          fill="currentColor"
        />
        <path
          d="M10.092,22.269c.32.225.636.452.957.67a36.268,36.268,0,0,0,9.078,4.531A23.939,23.939,0,0,0,24.513,28.5a13.385,13.385,0,0,0,4.664-.085,6.282,6.282,0,0,0,2.023-.8.15.15,0,0,1,.109-.026c-.074.1-.146.2-.223.3a17.071,17.071,0,0,1-7.4,5.561,16.649,16.649,0,0,1-5.372,1.133,5.962,5.962,0,0,1-1.573-.063,4.787,4.787,0,0,1-2.272-1.293,10.879,10.879,0,0,1-2.209-3.174,23.693,23.693,0,0,1-1.934-6.178c-.09-.489-.157-.982-.234-1.473A.193.193,0,0,1,10.092,22.269Z"
          fill="currentColor"
        />
        <path
          d="M21.68,12.826a1.836,1.836,0,0,1-.037.423c-.006.082.013.118.1.1a2.19,2.19,0,0,1,2.018.611,2.127,2.127,0,0,1,.669,1.282,2.243,2.243,0,0,1-.908,2.149c-.116.1-.11.137,0,.22a2.4,2.4,0,0,1,.912,1.5,2.318,2.318,0,0,1-1.53,2.485,2.119,2.119,0,0,1-1.047.1c-.21-.042-.238,0-.2.2a2.26,2.26,0,0,1-4.06,1.668c-.084-.1-.111-.137-.215-.006a2.232,2.232,0,0,1-2.1.921,2.292,2.292,0,0,1-1.972-2.006,2.163,2.163,0,0,1,.029-.687c.019-.1-.008-.108-.09-.1a3.887,3.887,0,0,1-.539.04,2.322,2.322,0,0,1-2.149-1.962,2.222,2.222,0,0,1,.916-2.129c.121-.1.124-.129,0-.226a2.265,2.265,0,0,1,1.048-4.089,1.856,1.856,0,0,1,.705.028c.12.027.127-.015.106-.124a2.258,2.258,0,0,1,4.05-1.76c.1.135.152.1.237,0a2.227,2.227,0,0,1,3.993.8A2.022,2.022,0,0,1,21.68,12.826Zm-7.1,5.053c-.595,0-1.19-.011-1.784,0a1.56,1.56,0,1,0,1.236,2.544.2.2,0,0,0,.05-.209.921.921,0,0,1,.566-1.074.945.945,0,0,1,1.152.392.91.91,0,0,1-.049,1.025.923.923,0,0,1-.989.369c-.059-.01-.1-.024-.154.021a1.621,1.621,0,0,0-.593,1.333,1.565,1.565,0,0,0,1.607,1.472,1.583,1.583,0,0,0,1.5-1.584q0-1.767,0-3.534a.732.732,0,0,0-.761-.757C15.764,17.878,15.169,17.879,14.575,17.879Zm2.546-3.293V12.8a1.557,1.557,0,1,0-2.626,1.14.382.382,0,0,0,.381.127.906.906,0,0,1,1.056.879.94.94,0,0,1-.93.982.929.929,0,0,1-.926-1.06.416.416,0,0,0-.168-.429,1.556,1.556,0,1,0-1.052,2.679h3.5a.719.719,0,0,0,.763-.767C17.122,15.764,17.121,15.175,17.121,14.586Zm.751-.009v1.768a.71.71,0,0,0,.769.773c1.173,0,2.346.007,3.518,0a1.552,1.552,0,0,0,1.523-1.832,1.482,1.482,0,0,0-1.043-1.211,1.511,1.511,0,0,0-1.605.409.378.378,0,0,0-.13.394.883.883,0,0,1-.642,1,.95.95,0,0,1-1.093-.434.924.924,0,0,1,.068-1.012.884.884,0,0,1,.922-.371c.071.012.142.057.221-.016a1.626,1.626,0,0,0,.575-1.455,1.548,1.548,0,0,0-3.082.2C17.87,13.387,17.872,13.982,17.872,14.577Zm0,5.833c0,.589,0,1.178,0,1.767a1.561,1.561,0,1,0,3.121,0,1.613,1.613,0,0,0-.579-1.2.2.2,0,0,0-.208-.054.922.922,0,0,1-1.137-.88.9.9,0,0,1,.51-.875A.94.94,0,0,1,20.915,20.2c-.012.065-.04.129.016.192a1.577,1.577,0,0,0,1.534.567,1.554,1.554,0,0,0,1.252-1.721,1.583,1.583,0,0,0-1.56-1.36q-1.767,0-3.535,0a.716.716,0,0,0-.749.746C17.872,19.22,17.873,19.815,17.872,20.41Z"
          fill="#ee3f35"
        />
        <path
          d="M3.735,7.411c-.014.035-.038.035-.066.018l.042-.044Z"
          fill="currentColor"
        />
      </g>
    </svg>