<?xml version="1.0" encoding="UTF-8" standalone="no"?>
<!DOCTYPE svg PUBLIC "-//W3C//DTD SVG 1.1//EN" "http://www.w3.org/Graphics/SVG/1.1/DTD/svg11.dtd">
<svg width="100%" height="100%" viewBox="0 0 524 472" version="1.1" xmlns="http://www.w3.org/2000/svg" xmlns:xlink="http://www.w3.org/1999/xlink" xml:space="preserve" xmlns:serif="http://www.serif.com/" style="fill-rule:evenodd;clip-rule:evenodd;stroke-linejoin:round;stroke-miterlimit:2;">
    <g transform="matrix(1,0,0,1,-27.897,-51.84)">
        <rect id="Plan-de-travail2" serif:id="Plan de travail2" x="27.897" y="51.84" width="523.468" height="471.531" style="fill:none;"/>
        <g id="Plan-de-travail21" serif:id="Plan de travail2">
            <g transform="matrix(0.1,0,0,-0.1,-223.15,838.267)">
                <path d="M3166,7699C3065,7347 3043,6847 3111,6490C3128,6405 3194,6175 3205,6162C3210,6157 3689,6285 3697,6294C3699,6296 3680,6300 3654,6304C3556,6317 3456,6387 3390,6490C3290,6647 3230,6968 3244,7275C3248,7352 3253,7427 3256,7442L3262,7470L3309,7431C3371,7379 3583,7167 3663,7077C3859,6857 3946,6678 3939,6505L3935,6419L3977,6467C4044,6542 4101,6624 4178,6756L4248,6878L4219,6934C4135,7102 4046,7179 3733,7353C3638,7406 3535,7466 3503,7486C3409,7546 3252,7670 3215,7712L3181,7752L3166,7699Z" style="fill-rule:nonzero;"/>
                <path d="M7020,7698C6953,7623 6788,7503 6622,7410C6375,7270 6325,7240 6255,7187C6174,7126 6089,7027 6047,6943L6016,6882L6085,6763C6161,6631 6232,6526 6288,6463L6325,6420L6322,6497C6313,6675 6385,6828 6586,7060C6702,7193 6988,7476 6997,7466C7001,7462 7005,7347 7005,7212C7005,7016 7001,6944 6986,6865C6964,6741 6917,6593 6878,6518C6820,6408 6705,6317 6608,6304C6555,6297 6553,6285 6603,6275C6620,6271 6727,6243 6839,6213C7003,6169 7044,6161 7051,6172C7085,6224 7152,6519 7170,6689C7192,6908 7177,7242 7135,7486C7115,7599 7078,7750 7071,7749C7068,7748 7045,7725 7020,7698Z" style="fill-rule:nonzero;"/>
                <path d="M4902,6125C4858,5969 4810,5742 4788,5580L4775,5486L4721,5580C4630,5741 4461,5979 4352,6100L4311,6145L4379,5985C4461,5793 4536,5583 4518,5597C4399,5690 4357,5719 4265,5774C4137,5851 4015,5902 3876,5935C3821,5949 3771,5960 3765,5960C3760,5959 3796,5939 3845,5914C3942,5865 4074,5779 4136,5726L4174,5693L4105,5702C3889,5732 3601,5620 3326,5400C3044,5175 2749,4815 2541,4445C2538,4440 2547,4444 2561,4455C2804,4651 2898,4719 3080,4831C3389,5020 3771,5174 4038,5216C4070,5221 4078,5226 4070,5234C4053,5251 3687,5245 3570,5227C3518,5218 3474,5213 3472,5214C3471,5216 3520,5236 3582,5259C3896,5377 4218,5417 4415,5364C4509,5339 4572,5305 4750,5185C4900,5083 4999,5025 5067,4999C5090,4990 5092,4991 5086,5012C5068,5078 5009,5438 4991,5595C4972,5759 4953,6028 4947,6205L4945,6275L4902,6125Z" style="fill-rule:nonzero;"/>
                <path d="M5296,6120C5277,5705 5255,5481 5205,5186C5187,5081 5174,4993 5176,4991C5186,4980 5367,5081 5519,5184C5720,5321 5783,5353 5900,5376C6057,5407 6333,5374 6579,5295C6704,5255 6820,5207 6775,5214C6608,5242 6313,5254 6215,5236L6165,5227L6275,5204C6732,5106 7183,4870 7689,4463C7708,4447 7719,4442 7714,4451C7568,4697 7442,4875 7283,5059C7013,5369 6715,5585 6430,5675C6359,5697 6326,5702 6234,5702C6173,5702 6112,5699 6099,5695C6077,5689 6077,5690 6105,5714C6164,5765 6346,5884 6425,5922L6505,5961L6454,5955C6283,5936 6016,5813 5824,5665C5778,5629 5740,5604 5740,5608C5740,5638 5874,5998 5914,6078C5928,6106 5940,6132 5940,6136C5940,6150 5903,6110 5823,6010C5706,5864 5610,5721 5542,5591L5484,5481L5457,5643C5429,5808 5369,6065 5327,6200L5303,6275L5296,6120Z" style="fill-rule:nonzero;"/>
                <path d="M4928,4613C4892,4564 4778,4407 4675,4262C4572,4117 4482,4001 4476,4004C4470,4006 4418,4029 4361,4055C4221,4117 4100,4148 3952,4160C3793,4172 3656,4159 3535,4119C3445,4089 3304,4012 3364,4025C3379,4028 3447,4035 3515,4040C3776,4058 4024,4011 4235,3901L4305,3865L4265,3863C4193,3858 4045,3838 4031,3830C4024,3826 4047,3820 4084,3817C4226,3804 4340,3737 4514,3566C4734,3349 4881,3271 5090,3262C5220,3257 5325,3276 5427,3325C5536,3376 5583,3411 5720,3545C5865,3686 5903,3716 5985,3757C6066,3798 6108,3810 6188,3819L6255,3826L6165,3843C6116,3852 6049,3861 6018,3862C5986,3864 5960,3866 5960,3867C5960,3876 6120,3947 6203,3975C6369,4030 6466,4043 6680,4037C6782,4034 6879,4028 6895,4025C6924,4019 6923,4019 6885,4044C6756,4126 6605,4163 6395,4163C6186,4163 6064,4135 5867,4042C5809,4015 5766,4000 5761,4006C5756,4011 5677,4121 5585,4250C5493,4379 5383,4533 5341,4592C5286,4669 5263,4694 5259,4683C5254,4669 5233,4666 5132,4662C5014,4658 5010,4659 5010,4679C5010,4691 5006,4700 5002,4700C4997,4700 4964,4661 4928,4613ZM5334,4060C5414,4029 5485,3959 5495,3902C5504,3848 5477,3787 5421,3737C5227,3562 4787,3641 4762,3855C4751,3956 4825,4034 4972,4075C5055,4098 5258,4090 5334,4060ZM4815,3520C5003,3493 5365,3499 5509,3531C5533,3536 5555,3539 5557,3536C5566,3527 5413,3449 5335,3423C5230,3389 5077,3381 4975,3404C4907,3420 4745,3492 4705,3525C4686,3540 4686,3541 4715,3536C4732,3533 4777,3526 4815,3520Z" style="fill-rule:nonzero;"/>
                <path d="M3620,4485C3425,4452 3254,4382 3068,4257C3009,4218 2962,4184 2964,4183C2966,4181 3005,4189 3052,4200C3268,4251 3390,4263 3687,4264C3842,4265 3961,4268 3952,4271C3914,4285 3740,4312 3648,4317C3594,4320 3553,4327 3556,4332C3564,4345 3697,4410 3760,4432C3803,4447 3930,4472 4005,4481C4011,4482 3997,4486 3975,4491C3916,4503 3706,4500 3620,4485Z" style="fill-rule:nonzero;"/>
                <path d="M6290,4492L6245,4485L6325,4471C6369,4464 6434,4449 6470,4438C6540,4416 6684,4347 6695,4330C6699,4324 6679,4320 6639,4320C6579,4320 6336,4285 6299,4272C6289,4268 6406,4265 6558,4265C6853,4264 6949,4255 7174,4204C7234,4191 7285,4181 7287,4183C7294,4191 7107,4312 7015,4358C6905,4414 6801,4450 6682,4476C6600,4493 6364,4503 6290,4492Z" style="fill-rule:nonzero;"/>
            </g>
        </g>
    </g>
</svg>
