<svg viewBox="0 0 524 472" xmlns="http://www.w3.org/2000/svg" xml:space="preserve" style="fill-rule:evenodd;clip-rule:evenodd;stroke-linejoin:round;stroke-miterlimit:2">
  <path style="fill:none" d="M27.897 51.84h523.468v471.531H27.897z" transform="translate(-27.897 -51.84)"/>
  <path d="M3166 7699c-101-352-123-852-55-1209 17-85 83-315 94-328 5-5 484 123 492 132 2 2-17 6-43 10-98 13-198 83-264 186-100 157-160 478-146 785 4 77 9 152 12 167l6 28 47-39c62-52 274-264 354-354 196-220 283-399 276-572l-4-86 42 48c67 75 124 157 201 289l70 122-29 56c-84 168-173 245-486 419-95 53-198 113-230 133-94 60-251 184-288 226l-34 40zm3854-1c-67-75-232-195-398-288-247-140-297-170-367-223-81-61-166-160-208-244l-31-61 69-119c76-132 147-237 203-300l37-43-3 77c-9 178 63 331 264 563 116 133 402 416 411 406 4-4 8-119 8-254 0-196-4-268-19-347-22-124-69-272-108-347-58-110-173-201-270-214-53-7-55-19-5-29 17-4 124-32 236-62 164-44 205-52 212-41 34 52 101 347 119 517 22 219 7 553-35 797-20 113-57 264-64 263-3-1-26-24-51-51M4902 6125c-44-156-92-383-114-545l-13-94-54 94c-91 161-260 399-369 520l-41 45 68-160c82-192 157-402 139-388-119 93-161 122-253 177-128 77-250 128-389 161-55 14-105 25-111 25-5-1 31-21 80-46 97-49 229-135 291-188l38-33-69 9c-216 30-504-82-779-302-282-225-577-585-785-955-3-5 6-1 20 10 243 196 337 264 519 376 309 189 691 343 958 385 32 5 40 10 32 18-17 17-383 11-500-7-52-9-96-14-98-13-1 2 48 22 110 45 314 118 636 158 833 105 94-25 157-59 335-179 150-102 249-160 317-186 23-9 25-8 19 13-18 66-77 426-95 583-19 164-38 433-44 610l-2 70zm394-5c-19-415-41-639-91-934-18-105-31-193-29-195 10-11 191 90 343 193 201 137 264 169 381 192 157 31 433-2 679-81 125-40 241-88 196-81-167 28-462 40-560 22l-50-9 110-23c457-98 908-334 1414-741 19-16 30-21 25-12-146 246-272 424-431 608-270 310-568 526-853 616-71 22-104 27-196 27-61 0-122-3-135-7-22-6-22-5 6 19 59 51 241 170 320 208l80 39-51-6c-171-19-438-142-630-290-46-36-84-61-84-57 0 30 134 390 174 470 14 28 26 54 26 58 0 14-37-26-117-126-117-146-213-289-281-419l-58-110-27 162c-28 165-88 422-130 557l-24 75zm-368-1507c-36-49-150-206-253-351s-193-261-199-258c-6 2-58 25-115 51-140 62-261 93-409 105-159 12-296-1-417-41-90-30-231-107-171-94 15 3 83 10 151 15 261 18 509-29 720-139l70-36-40-2c-72-5-220-25-234-33-7-4 16-10 53-13 142-13 256-80 430-251 220-217 367-295 576-304 130-5 235 14 337 63 109 51 156 86 293 220 145 141 183 171 265 212 81 41 123 53 203 62l67 7-90 17c-49 9-116 18-147 19-32 2-58 4-58 5 0 9 160 80 243 108 166 55 263 68 477 62 102-3 199-9 215-12 29-6 28-6-10 19-129 82-280 119-490 119-209 0-331-28-528-121-58-27-101-42-106-36-5 5-84 115-176 244s-202 283-244 342c-55 77-78 102-82 91-5-14-26-17-127-21-118-4-122-3-122 17 0 12-4 21-8 21-5 0-38-39-74-87m406-553c80-31 151-101 161-158 9-54-18-115-74-165-194-175-634-96-659 118-11 101 63 179 210 220 83 23 286 15 362-15m-519-540c188-27 550-21 694 11 24 5 46 8 48 5 9-9-144-87-222-113-105-34-258-42-360-19-68 16-230 88-270 121-19 15-19 16 10 11 17-3 62-10 100-16" style="fill-rule:nonzero;fill:#FF4F00" transform="translate(-27.897 -51.84) matrix(.1 0 0 -.1 -223.15 838.267)"/>
  <path d="M3620 4485c-195-33-366-103-552-228-59-39-106-73-104-74 2-2 41 6 88 17 216 51 338 63 635 64 155 1 274 4 265 7-38 14-212 41-304 46-54 3-95 10-92 15 8 13 141 78 204 100 43 15 170 40 245 49 6 1-8 5-30 10-59 12-269 9-355-6m2670 7-45-7 80-14c44-7 109-22 145-33 70-22 214-91 225-108 4-6-16-10-56-10-60 0-303-35-340-48-10-4 107-7 259-7 295-1 391-10 616-61 60-13 111-23 113-21 7 8-180 129-272 175-110 56-214 92-333 118-82 17-318 27-392 16" style="fill-rule:nonzero;fill:#FF4F00" transform="translate(-27.897 -51.84) matrix(.1 0 0 -.1 -223.15 838.267)"/>
</svg>
